<svg xmlns="http://www.w3.org/2000/svg" viewBox="0 0 256 256">
  <defs>
    <radialGradient id="gb" cx="50%" cy="35%" r="60%">
      <stop offset="0%" stop-color="#ff9f9f"/>
      <stop offset="100%" stop-color="#b62e2e"/>
    </radialGradient>
  </defs>
  <ellipse cx="128" cy="222" rx="86" ry="24" fill="#000" opacity="0.28"/>
  <path d="M40 152c0-62 39-110 88-110s88 48 88 110c0 40-20 64-53 71-13 3-24 5-35 5-11 0-22-2-35-5-33-7-53-31-53-71z" fill="url(#gb)"/>
  <circle cx="94" cy="128" r="13" fill="#3d0c0c"/>
  <circle cx="162" cy="128" r="13" fill="#3d0c0c"/>
  <circle cx="90" cy="124" r="3" fill="#fff"/>
  <circle cx="158" cy="124" r="3" fill="#fff"/>
  <path d="M98 170c10 13 50 13 60 0" stroke="#3d0c0c" stroke-width="7" fill="none" stroke-linecap="round"/>
  <path d="M76 76l16 18 18-14M180 76l-16 18-18-14M128 46l13 16-13 16-13-16z" stroke="#ffd2d2" stroke-width="5" fill="none" stroke-linejoin="round"/>
</svg>
