<svg xmlns="http://www.w3.org/2000/svg" viewBox="0 0 256 256">
  <defs>
    <radialGradient id="g1" cx="50%" cy="35%" r="60%">
      <stop offset="0%" stop-color="#b4ff7a"/>
      <stop offset="100%" stop-color="#36b84d"/>
    </radialGradient>
  </defs>
  <ellipse cx="128" cy="220" rx="74" ry="20" fill="#000" opacity="0.2"/>
  <path d="M52 142c0-52 33-94 76-94s76 42 76 94c0 34-19 56-46 62-12 3-24 4-30 4-8 0-20-1-30-4-27-6-46-28-46-62z" fill="url(#g1)"/>
  <circle cx="100" cy="128" r="12" fill="#123a1a"/>
  <circle cx="156" cy="128" r="12" fill="#123a1a"/>
  <circle cx="95" cy="124" r="3" fill="#fff"/>
  <circle cx="151" cy="124" r="3" fill="#fff"/>
  <path d="M100 162c10 12 46 12 56 0" stroke="#13451f" stroke-width="7" fill="none" stroke-linecap="round"/>
</svg>
