<svg xmlns="http://www.w3.org/2000/svg" viewBox="0 0 256 256">
  <defs>
    <radialGradient id="g2" cx="50%" cy="35%" r="60%">
      <stop offset="0%" stop-color="#9be9ff"/>
      <stop offset="100%" stop-color="#3389d9"/>
    </radialGradient>
  </defs>
  <ellipse cx="128" cy="220" rx="74" ry="20" fill="#000" opacity="0.22"/>
  <path d="M50 146c0-54 36-98 78-98 45 0 78 44 78 98 0 35-18 57-45 63-11 3-25 4-33 4s-22-1-33-4c-27-6-45-28-45-63z" fill="url(#g2)"/>
  <circle cx="102" cy="129" r="11" fill="#10345f"/>
  <circle cx="154" cy="129" r="11" fill="#10345f"/>
  <path d="M106 166c7 8 37 8 44 0" stroke="#10345f" stroke-width="6" fill="none" stroke-linecap="round"/>
  <path d="M84 84l13 20M172 84l-13 20" stroke="#d7fbff" stroke-width="6" stroke-linecap="round" opacity="0.8"/>
</svg>
