<svg xmlns="http://www.w3.org/2000/svg" viewBox="0 0 256 256">
  <defs>
    <radialGradient id="g4" cx="50%" cy="35%" r="60%">
      <stop offset="0%" stop-color="#f7f49f"/>
      <stop offset="100%" stop-color="#b8a63a"/>
    </radialGradient>
  </defs>
  <ellipse cx="128" cy="220" rx="76" ry="20" fill="#000" opacity="0.24"/>
  <path d="M50 147c0-55 35-100 78-100s78 45 78 100c0 35-18 58-46 64-12 3-24 4-32 4s-20-1-32-4c-28-6-46-29-46-64z" fill="url(#g4)"/>
  <circle cx="101" cy="129" r="11" fill="#3c3311"/>
  <circle cx="155" cy="129" r="11" fill="#3c3311"/>
  <path d="M102 165c8 9 44 9 52 0" stroke="#3c3311" stroke-width="6" fill="none" stroke-linecap="round"/>
  <path d="M66 89l12 12 15-8M190 89l-12 12-15-8M128 64l10 14-10 12-10-12z" stroke="#fff6b6" stroke-width="4" fill="none" stroke-linejoin="round"/>
</svg>
